<?xml version="1.0" encoding="utf-8"?>
<!-- Generator: Adobe Illustrator 24.0.1, SVG Export Plug-In . SVG Version: 6.00 Build 0)  -->
<svg version="1.1" id="Layer_1" xmlns="http://www.w3.org/2000/svg" xmlns:xlink="http://www.w3.org/1999/xlink" x="0px" y="0px"
	 viewBox="0 0 70 70" style="enable-background:new 0 0 70 70;" xml:space="preserve">
<style type="text/css">
	.st0{fill-rule:evenodd;clip-rule:evenodd;fill:#EC0000;}
</style>
<polygon class="st0" points="69.5,48.6 68.6,44.8 66,40.8 64.1,39 61.8,37.3 59.3,35.8 56.4,34.4 53.3,33.3 50,32.2 49.8,30.5 
	49.4,28.7 48.8,27 48,25.4 37.2,6.7 36.6,5.6 36.1,4.5 35.7,3.3 35.5,2.2 35,3 33.7,5.8 33.1,8.9 33.1,12 33.7,15 35,17.9 
	43.6,32.9 44.9,35.8 45.6,38.8 45.6,41.9 44.9,45 43.6,47.9 43.2,48.6 42.9,47.5 42.5,46.3 42.1,45.2 41.5,44.1 28.5,21.7 
	27.9,20.6 27.5,19.5 27.1,18.3 26.8,17.1 26.4,17.9 25.1,20.8 24.4,23.8 24.4,26.9 25.1,30 26.3,32.8 35,47.9 36.3,50.8 36.9,53.8 
	36.9,56.9 36.3,59.9 35,62.8 34.5,63.6 34.3,62.4 33.9,61.3 33.4,60.2 32.8,59.1 22,40.4 21.1,38.4 20.5,36.4 20.1,34.3 20,32.2 
	16.7,33.3 13.6,34.4 10.7,35.8 8.2,37.3 5.9,39 4,40.8 2.5,42.8 0.7,46.9 0.5,49.1 0.7,51.2 2.3,55 5.2,58.6 7.2,60.2 9.4,61.6 
	11.9,63 14.6,64.2 17.6,65.3 20.8,66.2 24.1,66.9 27.6,67.4 31.2,67.7 35,67.8 38.8,67.7 42.4,67.4 45.9,66.9 49.2,66.2 52.4,65.3 
	55.4,64.2 56.7,63.6 60.6,61.6 62.8,60.2 64.8,58.6 66.4,56.8 68.7,53.1 69.5,49.1 "/>
</svg>
