<?xml version="1.0" encoding="UTF-8"?><svg id="Layer_1" xmlns="http://www.w3.org/2000/svg" viewBox="0 0 439.84 157.25"><rect x="173.96" y="84.51" width="8.5" height="7.53"/><rect x="173.96" y="96.83" width="8.5" height="28.03"/><path d="M57.6,62.64h11.78l2.32,8.39h9.04l-12.05-37.55h-9.69l-12.48,37.55h8.5l2.58-8.39Zm6.08-21.95l3.98,15.6h-8.44l4.46-15.6Z"/><polygon points="221.17 31.97 213.74 31.97 210.84 39.83 215.79 39.83 221.17 31.97"/><path d="M90.64,71.47c4.47,0,6.62-2.04,7.92-5.11,.11,1.88,.21,3.44,.32,4.68h7.75c-.16-1.45-.22-3.17-.22-5.86v-22.17h-8.5v15.71c0,3.6-.97,5.97-3.71,5.97-1.73,0-3.28-.92-3.28-4.42v-17.27h-8.5v18.35c0,5.6,2.04,10.12,8.23,10.12Z"/><rect x="187.3" y="84.51" width="8.51" height="40.36"/><path d="M213.87,125.29c2.9,0,6.13-.59,8.88-1.61l-.16-6.4c-2.1,1.12-5.01,2.2-7.91,2.2-4.8,0-6.95-3.07-6.95-6.4h16.52v-2.04c0-14.64-9.63-14.64-12.16-14.64-8.02,0-12.43,6.84-12.43,14.37,0,8.56,4.36,14.53,14.21,14.53Zm-1.77-23.73c3.49,0,4.41,3.33,4.41,6.88h-8.77c0-1.5,0-6.88,4.37-6.88Z"/><rect x="258.39" y="43.01" width="8.5" height="28.03"/><path d="M56.36,125.29c4.9,0,6.78-3.17,7.65-4.9,.1,1.94,.2,3.39,.32,4.46h8.07c-.11-1.29-.22-2.74-.22-6.29v-34.06h-8.5v16.47c-1.13-2.53-3.39-4.58-7.32-4.58-7.04,0-9.85,6.24-9.85,13.78,0,8.93,3.55,15.12,9.85,15.12Zm3.07-23.08c3.44,0,4.25,4.2,4.25,8.66,0,3.23-.75,8.29-4.25,8.29-3.87,0-4.09-5.38-4.09-8.29,0-4.47,.33-8.66,4.09-8.66Z"/><path d="M88.22,96.4c-8.02,0-12.43,6.84-12.43,14.37,0,8.56,4.37,14.53,14.21,14.53,2.9,0,6.13-.59,8.88-1.61l-.16-6.4c-2.1,1.12-5.01,2.2-7.92,2.2-4.79,0-6.94-3.07-6.94-6.4h16.52v-2.04c0-14.64-9.64-14.64-12.16-14.64Zm-4.36,12.05c0-1.5,0-6.88,4.36-6.88,3.5,0,4.42,3.33,4.42,6.88h-8.78Z"/><path d="M134.53,118.3c-5.59,0-9.85-4.95-9.85-12.27s3.77-12.38,9.69-12.38c4.04,0,6.29,1.4,7.64,2.15l.42-7.32c-1.46-.59-4.3-1.83-9.9-1.83-7.64,0-16.9,5.49-16.9,19.26,0,11.89,7.21,19.58,17.5,19.58,4.78,0,7.91-.85,9.42-1.34l-.33-7.85c-.86,.38-3.39,1.99-7.69,1.99Z"/><path d="M161.16,96.4c-3.06,0-6.19,1.45-7.16,4.58l-.11-16.47h-8.5v40.36h8.5v-15.71c0-3.61,.97-5.97,3.71-5.97,1.72,0,3.28,.91,3.28,4.41v17.27h8.5v-18.34c0-5.6-2.04-10.12-8.23-10.12Z"/><path d="M314.17,71.68c4.78,0,7.91-.86,9.41-1.35l-.32-7.85c-.86,.37-3.39,1.99-7.69,1.99-5.6,0-9.85-4.95-9.85-12.27s3.77-12.37,9.68-12.37c4.04,0,6.3,1.4,7.64,2.15l.43-7.32c-1.45-.59-4.3-1.83-9.9-1.83-7.64,0-16.9,5.49-16.9,19.26,0,11.89,7.21,19.58,17.49,19.58Z"/><path d="M159.29,71.04h8.51v-15.71c0-3.55,.96-5.97,3.76-5.97,1.4,0,2.96,.86,2.96,4.41v17.27h8.5v-17.76c0-2.1,.97-3.93,3.5-3.93,1.88,0,3.23,1.18,3.23,4.41v17.27h8.5v-18.35c0-5.59-2.04-10.11-8.23-10.11-4.46,0-6.45,2.05-7.69,4.68-1.18-2.8-3.23-4.68-7.26-4.68-4.47,0-6.62,2.05-7.92,5.11-.11-1.88-.22-3.44-.32-4.68h-7.75c.15,1.45,.21,3.17,.21,5.86v22.17Z"/><rect x="271.73" y="30.68" width="8.5" height="40.35"/><rect x="258.39" y="30.68" width="8.5" height="7.53"/><polygon points="247.8 71.04 256.57 43.01 248.29 43.01 243.17 62.97 237.91 43.01 229.08 43.01 237.79 71.04 247.8 71.04"/><path d="M376.14,66.57c.97,1.72,2.85,4.89,7.75,4.89,6.3,0,9.85-6.19,9.85-15.12,0-7.54-2.8-13.78-9.85-13.78-3.93,0-6.19,2.05-7.21,4.58l-.11-16.46h-8.5v34.06c0,3.55-.11,5-.22,6.3h8.07c.11-1.08,.22-2.53,.22-4.46Zm4.68-18.19c3.77,0,4.09,4.2,4.09,8.66,0,2.9-.21,8.28-4.09,8.28-3.49,0-4.25-5.06-4.25-8.28,0-4.47,.81-8.66,4.25-8.66Z"/><path d="M215.04,71.47c8.61,0,13.18-6.03,13.18-14.53s-4.57-14.37-13.18-14.37-13.19,5.97-13.19,14.37,4.57,14.53,13.19,14.53Zm0-23.08c2.96,0,4.35,3.07,4.35,8.55s-1.39,8.72-4.35,8.72-4.35-3.23-4.35-8.72,1.4-8.55,4.35-8.55Z"/><path d="M113.13,63.18c0,6.14,3.82,8.29,8.23,8.29,2.74,0,5.06-.43,5.92-.75v-5.97c-.86,.38-1.62,.59-2.8,.59-1.62,0-2.85-.75-2.85-3.5v-12.86h5.49v-5.97h-5.49v-8.4l-8.29,2.64v5.76h-4.84v5.97h4.63v14.2Z"/><path d="M142.5,71.47c8.61,0,13.19-6.03,13.19-14.53s-4.57-14.37-13.19-14.37-13.18,5.97-13.18,14.37,4.57,14.53,13.18,14.53Zm0-23.08c2.96,0,4.36,3.07,4.36,8.55s-1.4,8.72-4.36,8.72-4.35-3.23-4.35-8.72,1.4-8.55,4.35-8.55Z"/><path d="M348,71.47c4.47,0,6.62-2.04,7.91-5.11,.11,1.88,.22,3.44,.32,4.68h7.76c-.16-1.45-.22-3.17-.22-5.86v-22.17h-8.5v15.71c0,3.6-.97,5.97-3.71,5.97-1.73,0-3.29-.92-3.29-4.42v-17.27h-8.5v18.35c0,5.6,2.04,10.12,8.23,10.12Z"/><rect x="326.7" y="30.68" width="8.5" height="40.35"/><path d="M236.41,113.06c-3.72,0-6.75,3.03-6.75,6.75s3.03,6.75,6.75,6.75,6.75-3.03,6.75-6.75-3.02-6.75-6.75-6.75Zm0,12.19c-2.83,0-5.1-2.28-5.1-5.44s2.28-5.44,5.1-5.44,5.1,2.28,5.1,5.44-2.28,5.44-5.1,5.44Z"/><path d="M239.48,118.21c0-1.61-.99-2.24-2.81-2.24h-2.84v7.65h1.42v-3.29h.86l1.99,3.29h1.45l-2.06-3.34c1.25-.12,2-.75,2-2.06Zm-4.24,1.03v-2.18h1.27c.72,0,1.56,.15,1.56,1.04,0,1.03-.73,1.14-1.57,1.14h-1.25Z"/></svg>