<?xml version="1.0" encoding="utf-8"?>
<!-- Generator: Adobe Illustrator 24.0.1, SVG Export Plug-In . SVG Version: 6.00 Build 0)  -->
<svg version="1.1" id="Layer_1" xmlns="http://www.w3.org/2000/svg" xmlns:xlink="http://www.w3.org/1999/xlink" x="0px" y="0px"
	 viewBox="0 0 160 30" style="enable-background:new 0 0 160 30;" xml:space="preserve">
<g>
	<g>
		<g>
			<g>
				<path d="M67.9,13.4c0-5.4-3.3-8.2-9.8-8.2H47.4v24.2h6.4v-7.8h4.3l3.1,7.8h7l-3.9-9.2C66.7,18.8,67.9,16.5,67.9,13.4z
					 M60.7,15.8c-0.5,0.6-1.3,0.9-2.4,0.9h-4.4v-6.4h4.4c1.1,0,1.9,0.3,2.5,0.8c0.6,0.6,0.8,1.3,0.8,2.3
					C61.5,14.5,61.2,15.2,60.7,15.8z M88.7,17c0.7-0.5,1.3-1.1,1.6-1.7c0.5-0.8,0.7-2,0.7-3.3c0-2.3-0.8-4-2.3-5.1
					c-1.5-1-3.6-1.6-6.4-1.6H71.5v24.2h11c2.8,0,5-0.6,6.6-1.7c1.6-1.2,2.4-3,2.4-5.4c0-1.5-0.3-2.8-0.9-3.7
					C90.2,18,89.5,17.4,88.7,17z M77.9,10.3h4.2c1.8,0,2.5,0.7,2.5,2.3c0,1.6-0.8,2.3-2.5,2.3h-4.2V10.3z M84.5,24
					c-0.5,0.3-1.2,0.5-2.3,0.5h-4.4v-4.7h4.4c2.6,0,2.9,1.2,2.9,2.3C85.1,23,84.9,23.7,84.5,24z M109.1,21.3c0,2.4-1.3,3.6-4.2,3.6
					c-2.8,0-4.2-1.1-4.2-3.6v-16h-6.4v15.9c0,3,0.9,5.2,2.7,6.7c1.7,1.4,4.4,2.1,7.8,2.1c3.5,0,6.1-0.7,7.8-2.1
					c1.8-1.4,2.7-3.7,2.7-6.7V5.3h-6.4V21.3z M125.7,5.3h-6.4v24.2h14.1c1.3-0.9,1.7-3.1,1.6-5.2h-9.4V5.3z M18,23.7
					c-2.4,0.3-4.6,0.5-6.7,0.5c-1.9,0-3.2-0.4-3.8-1.3c-0.6-1-1-2.1-1-4.7c0-2.6,0.2-3.9,0.5-4.9c0.3-1,0.8-1.7,1.4-2
					c1.3-0.7,4.7-0.7,9.7,0l0.6,0.1l0.2-5.3l-0.4-0.1c-8.1-1.7-13.7-1-16.1,1.9C0.7,9.6,0,12.8,0,17.4c0,2.2,0.1,4,0.4,5.4
					c0.3,1.5,0.8,2.8,1.6,3.9c0.8,1.1,1.9,2,3.3,2.5c1.4,0.5,3.2,0.7,5.4,0.7c2,0,4.3-0.2,6.8-0.7c1.4-0.9,1.7-3.7,1.7-5.8L18,23.7z
					 M153.8,5.3h-10.9l-6.2,24.2h6.4l4.7-19.3h1l2.4,10H146c0,2,0.3,4.2,1.7,5.1h4.9l1,4.2h6.4L153.8,5.3z M27.7,5.3l-6.2,24.2H28
					l4.7-19.3h1l2.4,10h-5.3c0,2,0.3,4.2,1.7,5.1h4.9l1,4.2h6.4L38.7,5.3H27.7z M37.3,0.1l-8.8,2.1l-0.4,1.5h10.1L37.3,0.1z"/>
			</g>
		</g>
	</g>
</g>
</svg>
