<?xml version="1.0" encoding="utf-8"?>
<!-- Generator: Adobe Illustrator 24.0.1, SVG Export Plug-In . SVG Version: 6.00 Build 0)  -->
<svg version="1.1" id="Layer_1" xmlns="http://www.w3.org/2000/svg" xmlns:xlink="http://www.w3.org/1999/xlink" x="0px" y="0px"
	 viewBox="0 0 580 580" style="enable-background:new 0 0 580 580;" xml:space="preserve">
<style type="text/css">
	.st0{fill:#33CA97;}
</style>
<g>
	<g>
		<g>
			<path class="st0" d="M290,540C152.1,540,40,427.8,40,290S152.1,40,290,40c137.9,0,250,112.1,250,250S427.9,540,290,540z
				 M290,69.4c-121.6,0-220.6,99-220.6,220.6s99,220.6,220.6,220.6c121.6,0,220.6-99,220.6-220.6S411.6,69.4,290,69.4z"/>
		</g>
	</g>
	<path class="st0" d="M396.4,249.4c10-10,10-26.4,0-36.4c-10-10-26.4-10-36.4,0l-99.4,99.4L220,271.8c-10-10-26.4-10-36.4,0
		c-10,10-10,26.4,0,36.4l58.8,58.8c10,10,26.4,10,36.4,0L396.4,249.4z"/>
</g>
</svg>
