<?xml version="1.0" encoding="utf-8"?>
<!-- Generator: Adobe Illustrator 17.1.0, SVG Export Plug-In . SVG Version: 6.00 Build 0)  -->
<!DOCTYPE svg PUBLIC "-//W3C//DTD SVG 1.1//EN" "http://www.w3.org/Graphics/SVG/1.1/DTD/svg11.dtd">
<svg version="1.1" id="Chile" xmlns="http://www.w3.org/2000/svg" xmlns:xlink="http://www.w3.org/1999/xlink" x="0px" y="0px"
	 viewBox="-320.4 268 3136.4 1000" enable-background="new -320.4 268 3136.4 1000" xml:space="preserve">
<title>Landiing Chile</title>
<path  fill="#ffb200" d="M-34.1,535.9l57.7,117.4c4.3,8.4,12.5,14.1,21.8,15.3l128.9,18.8c15.9,2.2,27,17,24.7,32.9c-0.9,6.4-3.9,12.3-8.6,16.8
	l-93.3,91.3c-7,6.7-10.1,16.5-8.4,26.1l21.8,127.7c2.7,15.9-8,31-23.9,33.7c-6.3,1.1-12.8,0-18.5-2.9l-115.3-60.7
	c-8.5-4.4-18.6-4.4-27.1,0l-115.2,60.7c-14.3,7.5-32,2-39.5-12.3c-3-5.7-4-12.2-2.9-18.5l22.1-128.4c1.7-9.5-1.4-19.3-8.4-26.1
	l-93.3-91.3c-11.5-11.2-11.8-29.6-0.7-41.1c4.5-4.6,10.4-7.7,16.8-8.6l128.9-18.8c9.5-1.4,17.7-7.3,21.9-15.9l58.1-116.1
	c7-14.4,24.5-20.5,38.9-13.4C-41.7,525.3-37,530-34.1,535.9z"/>
<path  fill="#ffb200" d="M620,535.9l57.7,117.4c4.3,8.4,12.5,14.1,21.8,15.3l128.9,18.8c15.9,2.2,27,17,24.7,32.9c-0.9,6.4-3.9,12.3-8.6,16.8
	l-93.3,91.3c-7,6.7-10.1,16.5-8.4,26.1l21.8,127.7c2.7,15.9-8,31-23.9,33.7c-6.3,1.1-12.8,0-18.5-2.9L607,952.4
	c-8.5-4.4-18.6-4.4-27.1,0l-115.2,60.7c-14.3,7.5-32,2-39.5-12.3c-3-5.7-4-12.2-2.9-18.5l22.1-128.4c1.7-9.5-1.4-19.3-8.4-26.1
	l-93.3-91.3c-11.5-11.2-11.8-29.6-0.7-41.1c4.5-4.6,10.4-7.7,16.8-8.6l128.9-18.8c9.5-1.4,17.7-7.3,21.9-15.9l58.1-116.1
	c7-14.4,24.5-20.5,38.9-13.4C612.4,525.3,617.2,530,620,535.9z"/>
<path  fill="#ffb200" d="M1274.2,535.9l57.7,117.4c4.3,8.4,12.5,14.1,21.8,15.3l128.9,18.8c15.9,2.2,27,17,24.7,32.9c-0.9,6.4-3.9,12.3-8.6,16.8
	l-93.3,91.3c-7,6.7-10.1,16.5-8.4,26.1l21.8,127.7c2.7,15.9-8,31-23.9,33.7c-6.3,1.1-12.8,0-18.5-2.9l-115.3-60.7
	c-8.5-4.4-18.6-4.4-27.1,0l-115.2,60.7c-14.3,7.5-32,2-39.5-12.3c-3-5.7-4-12.2-2.9-18.5l22.1-128.4c1.7-9.5-1.4-19.3-8.4-26.1
	l-93.3-91.3c-11.5-11.2-11.8-29.6-0.7-41.1c4.5-4.6,10.4-7.7,16.8-8.6l128.9-18.8c9.5-1.4,17.7-7.3,21.9-15.9l57.7-116.8
	c7-14.5,24.4-20.5,38.9-13.6C1266.4,524.6,1271.3,529.7,1274.2,535.9z"/>
<path  fill="#ffb200" d="M1928.3,535.9l57.7,117.4c4.3,8.4,12.5,14.1,21.8,15.3l128.9,18.8c15.9,2.2,27,17,24.7,32.9c-0.9,6.4-3.9,12.3-8.6,16.8
	l-93.3,91.3c-7,6.7-10.1,16.5-8.4,26.1l21.8,127.7c2.7,15.9-8,31-23.9,33.7c-6.3,1.1-12.8,0-18.5-2.9l-115.3-60.7
	c-8.5-4.4-18.6-4.4-27.1,0l-115.2,60.7c-14.3,7.5-32,2-39.5-12.3c-3-5.7-4-12.2-2.9-18.5l22.1-128.4c1.7-9.5-1.4-19.3-8.4-26.1
	l-93.3-91.3c-11.5-11.2-11.8-29.6-0.7-41.1c4.5-4.6,10.4-7.7,16.8-8.6l128.9-18.8c9.5-1.4,17.7-7.3,21.9-15.9l57.7-116.8
	c7-14.5,24.4-20.5,38.9-13.6C1920.6,524.6,1925.5,529.7,1928.3,535.9z"/>
<path  fill="#ffb200" d="M2582.4,535.9l57.7,117.4c4.3,8.4,12.5,14.1,21.8,15.3l128.9,18.8c15.9,2.2,27,17,24.7,32.9c-0.9,6.4-3.9,12.3-8.6,16.8
	l-93.3,91.3c-7,6.7-10.1,16.5-8.4,26.1l21.8,127.7c2.7,15.9-8,31-23.9,33.7c-6.3,1.1-12.8,0-18.5-2.9l-115.3-60.7
	c-8.5-4.4-18.6-4.4-27.1,0l-115.2,60.7c-14.3,7.5-32,2-39.5-12.3c-3-5.7-4-12.2-2.9-18.5l22.1-128.4c1.7-9.5-1.4-19.3-8.4-26.1
	l-93.3-91.3c-11.5-11.2-11.8-29.6-0.7-41.1c4.5-4.6,10.4-7.7,16.8-8.6l128.9-18.8c9.5-1.4,17.7-7.3,21.9-15.9l57.7-116.8
	c7-14.5,24.4-20.5,38.9-13.6C2574.7,524.6,2579.6,529.7,2582.4,535.9z"/>
</svg>
