<svg width="37" height="41" viewBox="0 0 37 41" fill="none" xmlns="http://www.w3.org/2000/svg">
<path fill-rule="evenodd" clip-rule="evenodd" d="M32.1294 4.87097H30.1616V0.935486H26.2262V4.87097H10.4842V0.935486H6.54873V4.87097H4.58099C2.41648 4.87097 0.645508 6.64194 0.645508 8.80645V36.3548C0.645508 38.5194 2.41648 40.2903 4.58099 40.2903H32.1294C34.2939 40.2903 36.0649 38.5194 36.0649 36.3548V8.80645C36.0649 6.64194 34.2939 4.87097 32.1294 4.87097ZM32.1294 36.3548H4.58099V16.6774H32.1294V36.3548ZM4.58099 8.80645V12.7419H32.1294V8.80645H4.58099ZM8.51648 20.6129H28.1939V24.5484H8.51648V20.6129ZM22.2907 28.4839H8.51648V32.4194H22.2907V28.4839Z" fill="#4B4B4B"/>
</svg>
