<svg width="46" height="46" viewBox="0 0 46 46" fill="none" xmlns="http://www.w3.org/2000/svg">
<path fill-rule="evenodd" clip-rule="evenodd" d="M23 0.5C10.5575 0.5 0.5 10.5575 0.5 23C0.5 35.4425 10.5575 45.5 23 45.5C35.4425 45.5 45.5 35.4425 45.5 23C45.5 10.5575 35.4425 0.5 23 0.5ZM23 41C13.0775 41 4.99998 32.9225 4.99998 23C4.99998 13.0775 13.0775 5 23 5C32.9225 5 41 13.0775 41 23C41 32.9225 32.9225 41 23 41ZM23 19.8275L31.0775 11.75L34.25 14.9225L26.1725 23L34.25 31.0775L31.0775 34.25L23 26.1725L14.9225 34.25L11.75 31.0775L19.8275 23L11.75 14.9225L14.9225 11.75L23 19.8275Z" fill="#CC3D3D"/>
</svg>
