<svg width="63" height="12" viewBox="0 0 63 12" fill="none" xmlns="http://www.w3.org/2000/svg">
<path d="M26.4406 5.30588C26.4406 3.23488 25.1587 2.18473 22.63 2.18473H18.4586V11.4619H20.9342V8.47911H22.5981L23.7868 11.4619H26.493L24.9861 7.94835C25.9515 7.36223 26.4406 6.47405 26.4406 5.30588ZM23.6093 6.22658C23.4056 6.44721 23.0955 6.55466 22.6603 6.55466H20.9342V4.10918H22.63C23.0595 4.10918 23.3737 4.21421 23.5929 4.43072C23.813 4.64891 23.9201 4.94037 23.9201 5.31889C23.9201 5.70232 23.8187 5.99866 23.6093 6.22658ZM34.5169 6.66349C34.7992 6.46649 35.0119 6.2467 35.1518 6.00656C35.3383 5.68741 35.4332 5.25759 35.4332 4.73008C35.4332 3.84192 35.137 3.18497 34.5537 2.77794C33.9893 2.38396 33.145 2.18449 32.0439 2.18449H27.8275V11.4616H32.1036C33.1966 11.4616 34.0621 11.2377 34.6765 10.7949C35.308 10.3414 35.6287 9.64221 35.6287 8.71983C35.6287 8.1272 35.5084 7.65176 35.272 7.30742C35.0929 7.0469 34.8401 6.8312 34.5169 6.66349ZM30.3022 4.10895H31.9383C32.6223 4.10895 32.9274 4.37674 32.9274 4.97919C32.9274 5.57997 32.6272 5.84781 31.9531 5.84781H30.3022V4.10895ZM32.8775 9.34096C32.6992 9.47124 32.403 9.53717 31.9989 9.53717H30.3022V7.74619H31.9989C32.9953 7.74619 33.1229 8.21754 33.1229 8.62865C33.1229 8.98361 33.0403 9.22292 32.8775 9.34096ZM42.4407 8.3019C42.4407 9.23479 41.9253 9.66869 40.8201 9.66869C39.714 9.66869 39.1986 9.23479 39.1986 8.3019V2.18413H36.7231V8.26201C36.7231 9.40659 37.0741 10.2638 37.7662 10.8101C38.4468 11.3465 39.4744 11.6184 40.8201 11.6184C42.165 11.6184 43.1925 11.3465 43.8732 10.8101C44.5653 10.2638 44.9162 9.40659 44.9162 8.26201V2.18413H42.4407V8.3019ZM48.9074 2.18433H46.4318V11.4623H51.931C52.4488 11.1041 52.574 10.2615 52.5601 9.4849H48.9074V2.18433ZM7.01747 9.22482C6.09794 9.34528 5.21932 9.40636 4.40451 9.40636C3.65188 9.40636 3.1504 9.2346 2.91559 8.8967C2.66284 8.53287 2.53522 8.08432 2.53522 7.09845C2.53522 6.09226 2.60062 5.61196 2.72988 5.20414C2.84937 4.82722 3.0285 4.57076 3.26168 4.44376C3.77214 4.16701 5.09906 4.1816 7.01747 4.43401L7.2359 4.46252L7.31117 2.41915L7.14753 2.38497C3.97748 1.72719 1.80629 1.9869 0.87775 3.1144C0.287072 3.83161 0 5.04453 0 6.82332C0 7.65284 0.0564029 8.35211 0.168486 8.9008C0.28382 9.46413 0.496559 9.96399 0.80248 10.3857C1.115 10.8171 1.55102 11.1354 2.09999 11.3324C2.63172 11.5221 3.34348 11.619 4.21634 11.619C5.0042 11.619 5.89591 11.5286 6.86287 11.3593C7.41427 11.0003 7.53368 9.95991 7.5124 9.12629L7.01747 9.22482ZM59.8658 2.18449H55.6117L53.2115 11.4616H55.6992L57.5358 4.05688H57.9416L58.8857 7.90172H56.8151C56.8061 8.67668 56.937 9.50705 57.4598 9.85304H59.3716L59.7782 11.4616H62.266L59.8658 2.18449ZM10.7913 2.18449L8.39102 11.4616H10.8789L12.7155 4.05688H13.1212L14.0652 7.90172H11.9857C11.9767 8.67668 12.1076 9.50705 12.6303 9.85304H14.5512L14.9578 11.4616H17.4456L15.0453 2.18449H10.7913ZM14.528 0.19043L11.1182 0.977602L10.9685 1.55724H14.883L14.528 0.19043Z" fill="#DEFFF9"/>
</svg>
