<svg width="160" height="30" viewBox="0 0 160 30" fill="none" xmlns="http://www.w3.org/2000/svg">
<path d="M67.9424 13.1448C67.9424 7.82308 64.6484 5.12461 58.1506 5.12461H47.4316V28.9633H53.7929V21.2988H58.0686L61.123 28.9633H68.077L64.2048 19.9349C66.6854 18.4288 67.9424 16.1465 67.9424 13.1448ZM60.6669 15.5106C60.1434 16.0775 59.3466 16.3537 58.2283 16.3537H53.7929V10.0697H58.1506C59.2543 10.0697 60.0614 10.3396 60.6248 10.8959C61.1903 11.4566 61.4657 12.2055 61.4657 13.1782C61.4657 14.1635 61.205 14.9249 60.6669 15.5106ZM88.6955 16.6333C89.4207 16.1271 89.9672 15.5623 90.3267 14.9453C90.806 14.1252 91.0498 13.0207 91.0498 11.6652C91.0498 9.38293 90.2889 7.69484 88.79 6.64893C87.3396 5.63653 85.1701 5.12398 82.3406 5.12398H71.506V28.9627H82.4941C85.3026 28.9627 87.5266 28.3874 89.1053 27.2495C90.7283 26.0842 91.5523 24.2875 91.5523 21.9173C91.5523 20.3945 91.2432 19.1728 90.6357 18.288C90.1754 17.6185 89.5258 17.0643 88.6955 16.6333ZM77.8651 10.0691H82.0694C83.8268 10.0691 84.6109 10.7572 84.6109 12.3053C84.6109 13.8491 83.8394 14.5373 82.1072 14.5373H77.8651V10.0691ZM84.4828 23.5134C84.0244 23.8481 83.2634 24.0176 82.2249 24.0176H77.8651V19.4154H82.2249C84.7854 19.4154 85.1134 20.6266 85.1134 21.683C85.1134 22.5951 84.901 23.2101 84.4828 23.5134ZM109.057 20.8434C109.057 23.2406 107.732 24.3555 104.892 24.3555C102.05 24.3555 100.726 23.2406 100.726 20.8434V5.12305H94.3645V20.7409C94.3645 23.682 95.2664 25.8848 97.0448 27.2884C98.7938 28.6668 101.434 29.3656 104.892 29.3656C108.348 29.3656 110.988 28.6668 112.737 27.2884C114.516 25.8848 115.418 23.682 115.418 20.7409V5.12305H109.057V20.8434ZM125.673 5.12356H119.312V28.9644H133.443C134.774 28.0439 135.095 25.8789 135.06 23.8833H125.673V5.12356ZM18.0322 23.2149C15.6694 23.5245 13.4117 23.6814 11.3179 23.6814C9.38395 23.6814 8.09533 23.2401 7.49196 22.3718C6.84248 21.4369 6.51456 20.2843 6.51456 17.751C6.51456 15.1655 6.68261 13.9313 7.01476 12.8833C7.3218 11.9148 7.78209 11.2558 8.38127 10.9294C9.69298 10.2183 13.1027 10.2558 18.0322 10.9044L18.5935 10.9776L18.7869 5.72698L18.3664 5.63913C10.2206 3.9489 4.64147 4.61625 2.25548 7.51349C0.737665 9.35646 0 12.4732 0 17.044C0 19.1756 0.144934 20.9724 0.432945 22.3823C0.729311 23.8299 1.27597 25.1143 2.06207 26.198C2.86513 27.3066 3.98553 28.1245 5.39618 28.6306C6.76253 29.1181 8.59148 29.3671 10.8344 29.3671C12.8589 29.3671 15.1503 29.1348 17.635 28.6997C19.0519 27.7772 19.3587 25.1039 19.304 22.9618L18.0322 23.2149ZM153.832 5.12398H142.901L136.733 28.9627H143.126L147.845 9.9353H148.888L151.314 19.8151H145.993C145.97 21.8064 146.307 23.9402 147.65 24.8292H152.563L153.607 28.9627H160L153.832 5.12398ZM27.7296 5.12398L21.5617 28.9627H27.9545L32.6739 9.9353H33.7165L36.1423 19.8151H30.7986C30.7755 21.8064 31.1119 23.9402 32.4552 24.8292H37.3912L38.4359 28.9627H44.8285L38.6608 5.12398H27.7296ZM37.3314 0L28.5696 2.02273L28.185 3.51219H38.2437L37.3314 0Z" fill="#B1B1B1"/>
</svg>
