<svg width="16" height="16" viewBox="0 0 16 16" fill="none" xmlns="http://www.w3.org/2000/svg">
<path fill-rule="evenodd" clip-rule="evenodd" d="M7.61905 0C3.40571 0 0 3.40571 0 7.61905C0 11.8324 3.40571 15.2381 7.61905 15.2381C11.8324 15.2381 15.2381 11.8324 15.2381 7.61905C15.2381 3.40571 11.8324 0 7.61905 0ZM7.61905 13.7143C4.25905 13.7143 1.52381 10.979 1.52381 7.61905C1.52381 4.25905 4.25905 1.52381 7.61905 1.52381C10.979 1.52381 13.7143 4.25905 13.7143 7.61905C13.7143 10.979 10.979 13.7143 7.61905 13.7143ZM7.61988 6.5456L10.3551 3.81036L11.4294 4.88464L8.69417 7.61988L11.4294 10.3551L10.3551 11.4294L7.61988 8.69417L4.88464 11.4294L3.81036 10.3551L6.5456 7.61988L3.81036 4.88464L4.88464 3.81036L7.61988 6.5456Z" fill="#38CEB3"/>
</svg>
