<svg width="20" height="20" viewBox="0 0 20 20" fill="none" xmlns="http://www.w3.org/2000/svg">
<g clip-path="url(#clip0)">
<path d="M5.45454 0.90918H14.5455C17.0909 0.90918 19.0909 2.90918 19.0909 5.45463V14.5455C19.0909 17.091 17.0909 19.091 14.5455 19.091H5.45454C2.90909 19.091 0.909088 17.091 0.909088 14.5455V5.45463C0.909088 2.90918 2.90909 0.90918 5.45454 0.90918Z" stroke="#999999" stroke-width="2" stroke-linecap="round" stroke-linejoin="round"/>
<path d="M13.6364 9.4545C13.9091 11.4545 12.5455 13.2727 10.5455 13.5454C8.54546 13.8181 6.72728 12.4545 6.45455 10.4545C6.18183 8.54541 7.54546 6.63632 9.54546 6.36359C9.9091 6.27268 10.2727 6.27268 10.6364 6.36359C12.1818 6.63632 13.3636 7.81814 13.6364 9.4545Z" stroke="#999999" stroke-width="2" stroke-linecap="round" stroke-linejoin="round"/>
<path d="M15 5.909C14.4545 5.909 14.0909 5.54537 14.0909 4.99991C14.0909 4.45446 14.4545 4.09082 15 4.09082C15.5455 4.09082 15.9091 4.45446 15.9091 4.99991C15.9091 5.54537 15.5455 5.909 15 5.909Z" fill="#999999"/>
</g>
<defs>
<clipPath id="clip0">
<rect width="20" height="20" fill="white"/>
</clipPath>
</defs>
</svg>
