<svg width="24" height="24" viewBox="0 0 24 24" fill="none" xmlns="http://www.w3.org/2000/svg">
<g clip-path="url(#clip0)">
<path d="M6.54537 1.09064H17.4545C20.509 1.09064 22.909 3.49064 22.909 6.54518V17.4543C22.909 20.5088 20.509 22.9088 17.4545 22.9088H6.54537C3.49082 22.9088 1.09082 20.5088 1.09082 17.4543V6.54518C1.09082 3.49064 3.49082 1.09064 6.54537 1.09064Z" stroke="#DEFFF9" stroke-width="2.4" stroke-linecap="round" stroke-linejoin="round"/>
<path d="M16.3637 11.3455C16.6909 13.7455 15.0546 15.9273 12.6546 16.2546C10.2546 16.5818 8.07276 14.9455 7.74549 12.5455C7.41822 10.2546 9.05458 7.96366 11.4546 7.63638C11.8909 7.52729 12.3273 7.52729 12.7637 7.63638C14.6182 7.96366 16.0364 9.38184 16.3637 11.3455Z" stroke="#DEFFF9" stroke-width="2.4" stroke-linecap="round" stroke-linejoin="round"/>
<path d="M17.9984 7.08813C17.3447 7.08813 16.9089 6.65234 16.9089 5.99865C16.9089 5.34497 17.3447 4.90918 17.9984 4.90918C18.6521 4.90918 19.0879 5.34497 19.0879 5.99865C19.0879 6.65234 18.6521 7.08813 17.9984 7.08813Z" fill="#DEFFF9"/>
</g>
<defs>
<clipPath id="clip0">
<rect width="24" height="24" fill="white"/>
</clipPath>
</defs>
</svg>
