<svg width="21" height="20" viewBox="0 0 21 20" fill="none" xmlns="http://www.w3.org/2000/svg">
<path d="M18.5455 0H1.45455C0.636364 0 0 0.636364 0 1.45455V18.5455C0 19.3636 0.636364 20 1.45455 20H18.6364C19.4545 20 20.0909 19.3636 20.0909 18.5455V1.45455C20 0.636364 19.3636 0 18.5455 0ZM6 17.1818H3.09091V7.63636H6.09091L6 17.1818ZM4.54545 6.27273C3.63636 6.27273 2.81818 5.54545 2.81818 4.54545C2.81818 3.54545 3.63636 2.81818 4.54545 2.81818C5.45455 2.81818 6.27273 3.54545 6.27273 4.54545C6.27273 5.54545 5.54545 6.27273 4.54545 6.27273ZM17.1818 17.1818H14.1818V12.5455C14.1818 11.4545 14.1818 10 12.6364 10C11.0909 10 10.8182 11.1818 10.8182 12.4545V17.1818H7.90909V7.63636H10.7273V8.90909C11.1818 8.18182 12.1818 7.36364 13.6364 7.36364C16.6364 7.36364 17.1818 9.36364 17.1818 11.9091V17.1818Z" fill="#DEFFF9"/>
</svg>
