<svg width="25" height="24" viewBox="0 0 25 24" fill="none" xmlns="http://www.w3.org/2000/svg">
<path d="M23.0586 0H2.64234C1.66497 0 0.904785 0.760181 0.904785 1.73756V22.1538C0.904785 23.1312 1.66497 23.8914 2.64234 23.8914H23.1672C24.1446 23.8914 24.9048 23.1312 24.9048 22.1538V1.73756C24.7962 0.760181 24.036 0 23.0586 0ZM8.07221 20.5249H4.59709V9.12217H8.1808L8.07221 20.5249ZM6.33465 7.49321C5.24868 7.49321 4.2713 6.62443 4.2713 5.42986C4.2713 4.23529 5.24868 3.36652 6.33465 3.36652C7.42062 3.36652 8.398 4.23529 8.398 5.42986C8.398 6.62443 7.52922 7.49321 6.33465 7.49321ZM21.4297 20.5249H17.846V14.9864C17.846 13.6833 17.846 11.9457 15.9998 11.9457C14.1537 11.9457 13.8279 13.3575 13.8279 14.8778V20.5249H10.3527V9.12217H13.7193V10.6425C14.2623 9.77376 15.4568 8.79638 17.1944 8.79638C20.7781 8.79638 21.4297 11.1855 21.4297 14.2262V20.5249Z" fill="#ACC7F9"/>
</svg>
