<svg width="29" height="41" viewBox="0 0 29 41" fill="none" xmlns="http://www.w3.org/2000/svg">
<path fill-rule="evenodd" clip-rule="evenodd" d="M14.3552 0.935484C6.74009 0.935484 0.581055 7.09452 0.581055 14.7097C0.581055 25.0403 14.3552 40.2903 14.3552 40.2903C14.3552 40.2903 28.1294 25.0403 28.1294 14.7097C28.1294 7.09452 21.9704 0.935484 14.3552 0.935484ZM4.51654 14.7097C4.51654 9.27871 8.92428 4.87097 14.3552 4.87097C19.7862 4.87097 24.194 9.27871 24.194 14.7097C24.194 20.3768 18.5269 28.8577 14.3552 34.151C10.2623 28.8971 4.51654 20.3177 4.51654 14.7097ZM9.43589 14.7097C9.43589 11.9928 11.6384 9.79032 14.3552 9.79032C16.1128 9.79032 17.7368 10.7279 18.6155 12.25C19.4943 13.7721 19.4943 15.6473 18.6155 17.1694C17.7368 18.6914 16.1128 19.629 14.3552 19.629C11.6384 19.629 9.43589 17.4266 9.43589 14.7097Z" fill="#4B4B4B"/>
</svg>
