<svg width="176" height="44" viewBox="0 0 176 44" fill="none" xmlns="http://www.w3.org/2000/svg">
<path d="M75.8292 18.8215C75.8292 13.449 72.5229 10.7248 66.0008 10.7248H55.2419V34.7909H61.6269V27.0533H65.9185L68.9844 34.7909H75.9643L72.0776 25.6764C74.5675 24.1559 75.8292 21.8519 75.8292 18.8215ZM68.5265 21.2099C68.0011 21.7822 67.2013 22.061 66.0788 22.061H61.6269V15.7171H66.0008C67.1086 15.7171 67.9188 15.9895 68.4843 16.5512C69.0519 17.1172 69.3283 17.8733 69.3283 18.8552C69.3283 19.8499 69.0667 20.6187 68.5265 21.2099ZM96.6598 22.3433C97.3877 21.8323 97.9363 21.2621 98.2971 20.6392C98.7782 19.8112 99.0229 18.6962 99.0229 17.3278C99.0229 15.0238 98.2591 13.3196 96.7547 12.2637C95.2988 11.2416 93.1212 10.7242 90.2812 10.7242H79.4061V34.7903H90.4352C93.2542 34.7903 95.4865 34.2095 97.0712 33.0607C98.7002 31.8844 99.5273 30.0705 99.5273 27.6777C99.5273 26.1404 99.2171 24.907 98.6073 24.0137C98.1452 23.3379 97.4932 22.7784 96.6598 22.3433ZM85.789 15.7165H90.009C91.773 15.7165 92.56 16.4112 92.56 17.974C92.56 19.5325 91.7856 20.2273 90.047 20.2273H85.789V15.7165V15.7165ZM92.4313 29.289C91.9713 29.627 91.2075 29.798 90.1651 29.798H85.789V25.152H90.1651C92.7351 25.152 93.0643 26.3747 93.0643 27.4412C93.0643 28.362 92.8512 28.9828 92.4313 29.289ZM117.097 26.5935C117.097 29.0136 115.768 30.1392 112.917 30.1392C110.064 30.1392 108.735 29.0136 108.735 26.5935V10.7233H102.35V26.4901C102.35 29.4593 103.255 31.683 105.04 33.1C106.796 34.4916 109.446 35.1971 112.917 35.1971C116.386 35.1971 119.036 34.4916 120.792 33.1C122.577 31.683 123.482 29.4593 123.482 26.4901V10.7233H117.097V26.5935V26.5935ZM133.776 10.7238H127.391V34.792H141.574C142.91 33.8628 143.233 31.677 143.197 29.6624H133.776V10.7238V10.7238ZM25.7327 28.9877C23.361 29.3002 21.0949 29.4587 18.9933 29.4587C17.0521 29.4587 15.7587 29.0131 15.1531 28.1366C14.5012 27.1927 14.172 26.0291 14.172 23.4717C14.172 20.8615 14.3407 19.6155 14.6741 18.5576C14.9823 17.5798 15.4443 16.9145 16.0457 16.585C17.3623 15.8671 20.7847 15.905 25.7327 16.5597L26.2961 16.6337L26.4902 11.3329L26.0681 11.2443C17.8919 9.5379 12.2919 10.2116 9.89702 13.1365C8.37354 14.997 7.63312 18.1435 7.63312 22.7579C7.63312 24.9098 7.77859 26.7238 8.06768 28.1472C8.36515 29.6085 8.91385 30.9052 9.70289 31.9992C10.509 33.1184 11.6335 33.9441 13.0494 34.4551C14.4209 34.9472 16.2567 35.1986 18.508 35.1986C20.54 35.1986 22.8399 34.9641 25.3339 34.5248C26.7561 33.5935 27.0641 30.8947 27.0092 28.7321L25.7327 28.9877ZM162.04 10.7242H151.068L144.877 34.7903H151.293L156.03 15.5814H157.077L159.512 25.5554H154.172C154.148 27.5658 154.486 29.7199 155.834 30.6174H160.765L161.814 34.7903H168.231L162.04 10.7242ZM35.4663 10.7242L29.2754 34.7903H35.692L40.429 15.5814H41.4755L43.9104 25.5554H38.5468C38.5236 27.5658 38.8612 29.7199 40.2095 30.6174H45.1639L46.2126 34.7903H52.6291L46.4383 10.7242H35.4663ZM45.1039 5.55133L36.3094 7.59336L35.9233 9.09703H46.0196L45.1039 5.55133Z" fill="white"/>
</svg>
