<svg width="20" height="19" viewBox="0 0 20 19" fill="none" xmlns="http://www.w3.org/2000/svg">
<path d="M9.99121 18.7422C14.9746 18.7422 19.0879 14.6289 19.0879 9.6543C19.0879 4.67969 14.9658 0.566406 9.98242 0.566406C5.00781 0.566406 0.90332 4.67969 0.90332 9.6543C0.90332 14.6289 5.0166 18.7422 9.99121 18.7422ZM9.99121 16.9316C5.95703 16.9316 2.73145 13.6885 2.73145 9.6543C2.73145 5.62012 5.95703 2.38574 9.98242 2.38574C14.0166 2.38574 17.2598 5.62012 17.2686 9.6543C17.2773 13.6885 14.0254 16.9316 9.99121 16.9316ZM6.66016 10.498H13.3135C13.8408 10.498 14.2188 10.1904 14.2188 9.68066C14.2188 9.16211 13.8584 8.8457 13.3135 8.8457H6.66016C6.12402 8.8457 5.75488 9.16211 5.75488 9.68066C5.75488 10.1904 6.13281 10.498 6.66016 10.498Z" fill="#4B4B4B"/>
</svg>
