<svg width="20" height="20" viewBox="0 0 20 18" fill="none" xmlns="http://www.w3.org/2000/svg">
  <path d="M16.326 2.625C14.6219 0.975 12.2982 0 9.8195 0C4.7072 0 0.601949 3.97501 0.601949 8.92501C0.601949 10.5 0.98913 12 1.84118 13.35L0.524414 18L5.40437 16.725C6.72117 17.4 8.27032 17.775 9.8195 17.775C14.9318 17.775 19.1146 13.8 19.1146 8.85C19.1146 6.525 18.0301 4.275 16.326 2.625ZM9.8195 16.35C8.42523 16.35 7.10843 15.975 5.94655 15.3L5.63679 15.15L2.77065 15.9L3.54524 13.2L3.39036 12.9C2.61577 11.7 2.22847 10.35 2.22847 8.92501C2.22847 4.87501 5.63679 1.5 9.89703 1.5C11.911 1.5 13.8474 2.25001 15.3192 3.67501C16.7909 5.10001 17.6429 6.90001 17.6429 8.92501C17.5655 12.975 14.0023 16.35 9.8195 16.35ZM14.0022 10.8C13.7698 10.725 12.6079 10.125 12.453 10.05C12.2207 9.97501 12.0658 9.9 11.9109 10.125C11.7559 10.35 11.2913 10.875 11.2138 11.025C11.0589 11.175 10.9813 11.175 10.749 11.1C9.43216 10.425 8.50266 9.9 7.65061 8.475C7.41823 8.1 7.8831 8.10001 8.34785 7.27501C8.42531 7.12501 8.34785 6.97501 8.34785 6.90001C8.34785 6.82501 7.80552 5.7 7.65061 5.25C7.49569 4.8 7.26335 4.875 7.10843 4.875C6.95351 4.875 6.79852 4.875 6.6436 4.875C6.48868 4.875 6.25646 4.95001 6.02408 5.17501C5.7917 5.40001 5.24949 5.92501 5.24949 7.05001C5.24949 8.17501 6.1015 9.225 6.17896 9.375C6.25642 9.525 7.80549 11.775 10.1293 12.75C11.601 13.35 12.1433 13.425 12.9179 13.275C13.3826 13.2 14.3121 12.75 14.467 12.225C14.622 11.7 14.6219 11.25 14.6219 11.175C14.3895 10.95 14.2346 10.875 14.0022 10.8Z" fill="#999999"/>
</svg>