<?xml version="1.0" encoding="utf-8"?>
<!-- Generator: Adobe Illustrator 24.0.1, SVG Export Plug-In . SVG Version: 6.00 Build 0)  -->
<svg version="1.1" id="Layer_1" xmlns="http://www.w3.org/2000/svg" xmlns:xlink="http://www.w3.org/1999/xlink" x="0px" y="0px"
	 viewBox="0 0 34.5 24" style="enable-background:new 0 0 34.5 24;" xml:space="preserve">
<style type="text/css">
	.st0{fill:#999999;}
</style>
<path class="st0" d="M33.8,3.8c-0.4-1.6-1.6-2.7-3-3C28,0,17.3,0,17.3,0S6.5,0,3.9,0.7C2.3,1.1,1.2,2.2,0.7,3.8C0,6.4,0,12,0,12
	s0,5.6,0.7,8.2c0.4,1.6,1.6,2.7,3,3C6.5,24,17.1,24,17.1,24s10.8,0,13.4-0.7c1.6-0.4,2.7-1.6,3-3c1-2.6,1-8.2,1-8.2
	S34.5,6.4,33.8,3.8z M13.8,17.2V6.8l9.1,5.2L13.8,17.2z"/>
</svg>
