<?xml version="1.0" encoding="utf-8"?>
<!-- Generator: Adobe Illustrator 24.0.1, SVG Export Plug-In . SVG Version: 6.00 Build 0)  -->
<svg version="1.1" id="Layer_1" xmlns="http://www.w3.org/2000/svg" xmlns:xlink="http://www.w3.org/1999/xlink" x="0px" y="0px"
	 viewBox="0 0 20 20" style="enable-background:new 0 0 20 20;" xml:space="preserve">
<style type="text/css">
	.st0{fill:#999999;}
</style>
<path class="st0" d="M18.6,5.7c-0.2-0.8-0.8-1.4-1.6-1.6c-1.4-0.4-7-0.4-7-0.4s-5.6,0-7,0.4C2.2,4.3,1.6,4.9,1.4,5.7
	C1,7.1,1,10,1,10s0,2.9,0.4,4.3c0.2,0.8,0.8,1.4,1.6,1.6c1.4,0.4,7,0.4,7,0.4s5.6,0,7-0.4c0.8-0.2,1.4-0.8,1.6-1.6
	C19,12.9,19,10,19,10S19,7.1,18.6,5.7z M8.2,12.7V7.3l4.7,2.7L8.2,12.7z"/>
</svg>
